<svg width="20" height="25" viewBox="0 0 20 25" fill="none" xmlns="http://www.w3.org/2000/svg">
<path d="M10 0.3125C8.96406 0.3125 8.125 1.15156 8.125 2.1875C8.125 2.26813 8.14375 2.345 8.15406 2.42188C4.91313 3.24969 2.5 6.19344 2.5 9.6875V18.125C2.5 18.6556 2.09312 19.0625 1.5625 19.0625H0.625V20.9375H7.36375C7.25114 21.2374 7.19151 21.5547 7.1875 21.875C7.1875 23.4172 8.45781 24.6875 10 24.6875C11.5422 24.6875 12.8125 23.4172 12.8125 21.875C12.8085 21.5547 12.7489 21.2374 12.6363 20.9375H19.375V19.0625H18.4375C17.9069 19.0625 17.5 18.6556 17.5 18.125V9.95094C17.5 6.42781 15.145 3.28531 11.8459 2.42188C11.8562 2.345 11.875 2.26813 11.875 2.1875C11.875 1.15156 11.0359 0.3125 10 0.3125ZM9.58938 4.0625C9.72531 4.05125 9.86125 4.0625 10 4.0625H10.1762C13.2372 4.15438 15.625 6.8375 15.625 9.95094V18.125C15.625 18.455 15.6944 18.7663 15.8012 19.0625H4.19969C4.31197 18.7625 4.37129 18.4453 4.375 18.125V9.6875C4.37232 8.26432 4.90877 6.89294 5.87639 5.84931C6.84401 4.80567 8.17099 4.16725 9.59031 4.0625H9.58938ZM10 20.9375C10.5278 20.9375 10.9375 21.3481 10.9375 21.875C10.9375 22.4028 10.5269 22.8125 10 22.8125C9.47219 22.8125 9.0625 22.4019 9.0625 21.875C9.0625 21.3472 9.47313 20.9375 10 20.9375Z" fill="white"/>
</svg>
